<svg width="374" height="449" viewBox="0 0 374 449" fill="none" xmlns="http://www.w3.org/2000/svg">
<g opacity="0.15">
<path d="M222.937 64.4328C240.73 64.4328 255.154 50.009 255.154 32.2164C255.154 14.4238 240.73 0 222.937 0C205.145 0 190.721 14.4238 190.721 32.2164C190.721 50.009 205.145 64.4328 222.937 64.4328Z" fill="#ED8D03"/>
<path d="M127.819 444.546C161.47 444.546 188.748 417.267 188.748 383.617C188.748 349.967 161.47 322.688 127.819 322.688C94.1693 322.688 66.8905 349.967 66.8905 383.617C66.8905 417.267 94.1693 444.546 127.819 444.546Z" fill="#ED8D03"/>
<path d="M127.819 170.907C153.263 170.907 173.889 150.281 173.889 124.838C173.889 99.3943 153.263 78.7683 127.819 78.7683C102.376 78.7683 81.7496 99.3943 81.7496 124.838C81.7496 150.281 102.376 170.907 127.819 170.907Z" fill="#ED8D03"/>
<path d="M53.4999 297.317C83.047 297.317 107 273.364 107 243.817C107 214.27 83.047 190.317 53.4999 190.317C23.9527 190.317 0 214.27 0 243.817C0 273.364 23.9527 297.317 53.4999 297.317Z" fill="#ED8D03"/>
<path d="M277.061 448.453C294.854 448.453 309.277 434.029 309.277 416.237C309.277 398.444 294.854 384.02 277.061 384.02C259.268 384.02 244.845 398.444 244.845 416.237C244.845 434.029 259.268 448.453 277.061 448.453Z" fill="#5DD068"/>
<path d="M372.181 125.807C405.831 125.807 433.11 98.5096 433.11 64.8367C433.11 31.1638 405.831 3.86649 372.181 3.86649C338.531 3.86649 311.252 31.1638 311.252 64.8367C311.252 98.5096 338.531 125.807 372.181 125.807Z" fill="#5DD068"/>
<path d="M372.179 369.684C397.623 369.684 418.249 349.058 418.249 323.615C418.249 298.171 397.623 277.545 372.179 277.545C346.736 277.545 326.11 298.171 326.11 323.615C326.11 349.058 346.736 369.684 372.179 369.684Z" fill="#5DD068"/>
</g>
</svg>
