<svg width="772" height="585" viewBox="0 0 772 585" fill="none" xmlns="http://www.w3.org/2000/svg">
<g opacity="0.5">
<path d="M28.9361 -62C-57.5072 219.352 -69.6611 349.631 -66.5809 563.272C118.303 170.24 200.896 48.9562 325.813 -62H28.9361Z" fill="#F6C681"/>
<path d="M400.258 -62C217.663 86.8422 138.597 226.31 0.119995 481.19C160.071 244.373 343.496 72.2564 761.674 -62H555.151C482.018 -19.9031 449.983 1.25755 400.258 36.9813C437.516 -1.4487 467.054 -23.1691 524.172 -62H400.258Z" fill="#F6C681"/>
<path d="M694.246 122.064C348.632 248.439 -30.8585 562.065 -30.8585 562.065C-30.8585 562.065 109.765 338.939 293.125 216.838C451.936 142.074 540.259 123.201 694.246 122.064Z" fill="#F6C681"/>
</g>
</svg>
