<svg width="839" height="447" viewBox="0 0 839 447" fill="none" xmlns="http://www.w3.org/2000/svg">
<g opacity="0.5">
<path d="M743.064 647C829.507 365.648 841.661 235.369 838.581 21.7276C653.697 414.76 571.104 536.044 446.187 647H743.064Z" fill="#F6C681"/>
<path d="M371.741 647C554.337 498.158 633.403 358.69 771.88 103.81C611.928 340.627 428.504 512.744 10.326 647H216.849C289.982 604.903 322.017 583.742 371.741 548.019C334.484 586.449 304.945 608.169 247.828 647L371.741 647Z" fill="#F6C681"/>
<path d="M77.7542 462.936C423.368 336.561 802.858 22.9347 802.858 22.9347C802.858 22.9347 662.234 246.061 478.875 368.162C320.064 442.926 231.741 461.799 77.7542 462.936Z" fill="#F6C681"/>
</g>
</svg>
