<svg width="862" height="680" viewBox="0 0 862 680" fill="none" xmlns="http://www.w3.org/2000/svg">
<path d="M1.14402 0C-99.0024 295.702 -113.083 432.626 -109.514 657.164C104.677 244.086 200.363 116.615 345.082 0H1.14402Z" fill="#FADDB3"/>
<path d="M431.329 0C219.788 156.434 128.188 303.015 -32.24 570.896C153.067 322 365.568 141.104 850.037 0H610.775C526.049 44.2441 488.936 66.484 431.329 104.03C474.493 63.6397 508.714 40.8114 574.886 0H431.329Z" fill="#FADDB3"/>
<path d="M771.92 193.452C371.519 326.273 -68.1292 655.896 -68.1292 655.896C-68.1292 655.896 94.7868 421.388 307.212 293.06C491.199 214.482 593.523 194.647 771.92 193.452Z" fill="#FADDB3"/>
</svg>
